<svg width="20" height="15" viewBox="0 0 20 15" version="1.1" xmlns="http://www.w3.org/2000/svg" xmlns:xlink="http://www.w3.org/1999/xlink">
<g id="Canvas" fill="none">
<g id="Group">
<g id="XMLID 44">
<path d="M 8.11799 0L 0 0L 0 1.15385L 8.11799 1.15385L 8.11799 0Z" transform="translate(11.882 0)" fill="#BD3D44"/>
</g>
<g id="XMLID 43">
<path d="M 8.11799 0L 0 0L 0 1.15385L 8.11799 1.15385L 8.11799 0Z" transform="translate(11.882 2.30762)" fill="#BD3D44"/>
</g>
<g id="XMLID 42">
<path d="M 8.11799 0L 0 0L 0 1.15385L 8.11799 1.15385L 8.11799 0Z" transform="translate(11.882 6.92285)" fill="#BD3D44"/>
</g>
<g id="XMLID 41">
<path d="M 8.11799 0L 0 0L 0 1.15385L 8.11799 1.15385L 8.11799 0Z" transform="translate(11.882 4.61523)" fill="#BD3D44"/>
</g>
<g id="XMLID 40">
<path d="M 8.11799 0L 0 0L 0 1.15385L 8.11799 1.15385L 8.11799 0Z" transform="translate(11.882 1.1543)" fill="white"/>
</g>
<g id="XMLID 39">
<path d="M 8.11799 0L 0 0L 0 1.15385L 8.11799 1.15385L 8.11799 0Z" transform="translate(11.882 5.76953)" fill="white"/>
</g>
<g id="XMLID 38">
<path d="M 8.11799 0L 0 0L 0 1.15385L 8.11799 1.15385L 8.11799 0Z" transform="translate(11.882 3.46191)" fill="white"/>
</g>
<g id="XMLID 37">
<path d="M 20 0L 0 0L 0 1.15385L 20 1.15385L 20 0Z" transform="translate(0 8.07715)" fill="white"/>
</g>
<g id="XMLID 36">
<path d="M 20 0L 0 0L 0 1.15385L 20 1.15385L 20 0Z" transform="translate(0 10.3848)" fill="white"/>
</g>
<g id="XMLID 35">
<path d="M 20 0L 0 0L 0 1.15385L 20 1.15385L 20 0Z" transform="translate(0 12.6924)" fill="white"/>
</g>
<g id="XMLID 34">
<path d="M 20 0L 0 0L 0 1.15385L 20 1.15385L 20 0Z" transform="translate(0 9.23047)" fill="#BD3D44"/>
</g>
<g id="XMLID 33">
<path d="M 20 0L 0 0L 0 1.15385L 20 1.15385L 20 0Z" transform="translate(0 13.8457)" fill="#BD3D44"/>
</g>
<g id="XMLID 32">
<path d="M 20 0L 0 0L 0 1.15385L 20 1.15385L 20 0Z" transform="translate(0 11.5381)" fill="#BD3D44"/>
</g>
<g id="XMLID 31">
<path d="M 11.882 0L 0 0L 0 8.07692L 11.882 8.07692L 11.882 0Z" fill="#192E5D"/>
</g>
<g id="XMLID 15">
<g id="XMLID 26">
<g id="XMLID 30">
<path d="M 0.4375 0.875C 0.679125 0.875 0.875 0.679125 0.875 0.4375C 0.875 0.195875 0.679125 0 0.4375 0C 0.195875 0 0 0.195875 0 0.4375C 0 0.679125 0.195875 0.875 0.4375 0.875Z" transform="translate(0.9552 0.731445)" fill="white"/>
</g>
<g id="XMLID 29">
<path d="M 0.4375 0.875C 0.679125 0.875 0.875 0.679125 0.875 0.4375C 0.875 0.195875 0.679125 0 0.4375 0C 0.195875 0 0 0.195875 0 0.4375C 0 0.679125 0.195875 0.875 0.4375 0.875Z" transform="translate(3.98743 0.731445)" fill="white"/>
</g>
<g id="XMLID 28">
<path d="M 0.4375 0.875C 0.679125 0.875 0.875 0.679125 0.875 0.4375C 0.875 0.195875 0.679125 0 0.4375 0C 0.195875 0 0 0.195875 0 0.4375C 0 0.679125 0.195875 0.875 0.4375 0.875Z" transform="translate(7.01959 0.731445)" fill="white"/>
</g>
<g id="XMLID 27">
<path d="M 0.4375 0.875C 0.679125 0.875 0.875 0.679125 0.875 0.4375C 0.875 0.195875 0.679125 0 0.4375 0C 0.195875 0 0 0.195875 0 0.4375C 0 0.679125 0.195875 0.875 0.4375 0.875Z" transform="translate(10.0518 0.731445)" fill="white"/>
</g>
</g>
<g id="XMLID 21">
<g id="XMLID 25">
<path d="M 0.4375 0.875C 0.679125 0.875 0.875 0.679125 0.875 0.4375C 0.875 0.195875 0.679125 0 0.4375 0C 0.195875 0 0 0.195875 0 0.4375C 0 0.679125 0.195875 0.875 0.4375 0.875Z" transform="translate(0.9552 3.5127)" fill="white"/>
</g>
<g id="XMLID 24">
<path d="M 0.4375 0.875C 0.679125 0.875 0.875 0.679125 0.875 0.4375C 0.875 0.195875 0.679125 0 0.4375 0C 0.195875 0 0 0.195875 0 0.4375C 0 0.679125 0.195875 0.875 0.4375 0.875Z" transform="translate(3.98743 3.5127)" fill="white"/>
</g>
<g id="XMLID 23">
<path d="M 0.4375 0.875C 0.679125 0.875 0.875 0.679125 0.875 0.4375C 0.875 0.195875 0.679125 0 0.4375 0C 0.195875 0 0 0.195875 0 0.4375C 0 0.679125 0.195875 0.875 0.4375 0.875Z" transform="translate(7.01959 3.5127)" fill="white"/>
</g>
<g id="XMLID 22">
<path d="M 0.4375 0.875C 0.679125 0.875 0.875 0.679125 0.875 0.4375C 0.875 0.195875 0.679125 0 0.4375 0C 0.195875 0 0 0.195875 0 0.4375C 0 0.679125 0.195875 0.875 0.4375 0.875Z" transform="translate(10.0518 3.5127)" fill="white"/>
</g>
</g>
<g id="XMLID 16">
<g id="XMLID 20">
<path d="M 0.4375 0.875C 0.679125 0.875 0.875 0.679125 0.875 0.4375C 0.875 0.195875 0.679125 0 0.4375 0C 0.195875 0 0 0.195875 0 0.4375C 0 0.679125 0.195875 0.875 0.4375 0.875Z" transform="translate(0.9552 6.29395)" fill="white"/>
</g>
<g id="XMLID 19">
<path d="M 0.4375 0.875C 0.679125 0.875 0.875 0.679125 0.875 0.4375C 0.875 0.195875 0.679125 0 0.4375 0C 0.195875 0 0 0.195875 0 0.4375C 0 0.679125 0.195875 0.875 0.4375 0.875Z" transform="translate(3.98743 6.29395)" fill="white"/>
</g>
<g id="XMLID 18">
<path d="M 0.4375 0.875C 0.679125 0.875 0.875 0.679125 0.875 0.4375C 0.875 0.195875 0.679125 0 0.4375 0C 0.195875 0 0 0.195875 0 0.4375C 0 0.679125 0.195875 0.875 0.4375 0.875Z" transform="translate(7.01959 6.29395)" fill="white"/>
</g>
<g id="XMLID 17">
<path d="M 0.4375 0.875C 0.679125 0.875 0.875 0.679125 0.875 0.4375C 0.875 0.195875 0.679125 0 0.4375 0C 0.195875 0 0 0.195875 0 0.4375C 0 0.679125 0.195875 0.875 0.4375 0.875Z" transform="translate(10.0518 6.29395)" fill="white"/>
</g>
</g>
</g>
</g>
</g>
</svg>

